<?xml version="1.0" encoding="utf-8"?>
<!-- Generator: Adobe Illustrator 22.1.0, SVG Export Plug-In . SVG Version: 6.00 Build 0)  -->
<svg version="1.1" id="Layer_1" xmlns="http://www.w3.org/2000/svg" xmlns:xlink="http://www.w3.org/1999/xlink" x="0px" y="0px"
	 viewBox="0 0 841.9 595.3" style="enable-background:new 0 0 841.9 595.3;" xml:space="preserve">
<style type="text/css">
	.st0{fill-rule:evenodd;clip-rule:evenodd;fill:#25396F;}
	.st1{fill-rule:evenodd;clip-rule:evenodd;fill:#9CCA55;}
	.st2{fill:#25396F;}
</style>
<g>
	<path class="st0" d="M603,303.2c0,3.5-0.7,6.9-2.2,10c-2.3,4.8-5.7,8.7-10.8,10.8c-4.5,1.9-9.1,2.1-13.8,0.6
		c-2.5-0.7-4.6-2.1-6.5-3.8c-2.8-2.6-5.1-5.6-6.4-9.4c-1.5-4.4-1.8-8.8-1.1-13.3c0.6-3.4,1.8-6.6,3.8-9.4c2.1-3.2,5-5.5,8.4-7.2
		c2.3-1.1,4.7-1.7,7.3-1.7c3.1-0.1,6,0.5,8.8,1.8c4.1,1.9,7.1,4.9,9.3,8.8c1.4,2.5,2.3,5.1,2.8,7.9C602.9,300,602.9,301.6,603,303.2
		z M566.3,301.3c0,0.4,0,0.8,0.1,1.1c0.3,5.9,2.3,11.1,6.7,15.2c2.4,2.3,5.3,3.6,8.6,3.9c4.6,0.4,8.4-1.3,11.5-4.6
		c2.5-2.7,4.1-6,4.7-9.7c0.7-4.3,0.2-8.5-1.7-12.6c-1.4-3-3.1-5.7-5.8-7.7c-3-2.2-6.2-3.2-9.9-2.8c-5,0.4-8.6,3.2-11.3,7.3
		C567.2,294.4,566.3,297.7,566.3,301.3z"/>
	<path class="st0" d="M511.8,285.5c-4.2,0-8.3,0-12.4,0c-0.2,0-0.4,0-0.6,0c-0.8,0.1-1,0.4-1,1.2c0,2,0,4,0,6
		c0,3.4-0.1,6.7-0.1,10.1c0,3.6,0.5,7.2,2.3,10.5c1.1,2,2.6,3.7,4.4,5.1c2.9,2.4,6.3,3.6,10.1,3.2c2.5-0.2,4.8-1.2,6.7-2.8
		c2-1.7,3.6-3.6,4.8-5.9c0.4-0.8,1-1.1,1.8-1.1c0.5,0,0.9-0.1,1.4-0.1c1.5,0,2.2,1.2,1.5,2.5c-1.6,3.2-3.8,5.9-6.7,7.9
		c-2.5,1.7-5.2,2.9-8.3,3.3c-2.9,0.4-5.7,0.1-8.5-0.8c-2.5-0.8-4.7-2.1-6.6-3.7c-3.3-2.9-5.7-6.4-6.6-10.7c-0.5-2.3-0.6-4.7-0.7-7.1
		c-0.1-3.5-0.1-7.1-0.1-10.6c0-3,0.1-6,0.1-9c0-2.1,0-4.1-0.1-6.2c0-1.4,0.6-2.1,2-2.1c0.3,0,0.6,0,1,0c0.9,0,1.4,0.3,1.6,1.2
		c0.1,0.8,0.1,1.6,0.1,2.4c0,0.5,0,0.9,0,1.4c0.1,0.9,0.4,1.3,1.4,1.3c0.7,0,1.4,0,2.1,0c7,0,14,0,21,0c0.7,0,1.5,0,2.2-0.1
		c0.8,0,1.4,0.3,1.7,1c0.3,0.9,0.1,2.2-0.4,2.7c-0.3,0.2-0.6,0.3-0.9,0.3c-0.8,0.1-1.7,0-2.5,0C518.8,285.5,515.3,285.5,511.8,285.5
		L511.8,285.5z"/>
	<path class="st0" d="M549.5,299.7c0.8,0,1.5,0.7,1.6,1.6c0,0.2,0,0.5,0,0.7c-0.1,1.8-0.8,2.4-2.6,2.2c-1-0.1-2,0-3,0
		c-1,0-1.9,0.1-2.9,0.1c-0.7,0-1.3-0.4-1.5-1c-0.1-0.2-0.1-0.5-0.1-0.7c-0.1-2,0.1-3.1,2.8-2.8c0.2,0,0.4,0,0.5,0
		C544.5,299.8,548,299.8,549.5,299.7z"/>
	<g>
		<path class="st0" d="M413.6,320.4c-4.8,1.1-9.7,1.5-14.6,1.3c-2.4,0-4.6-0.7-6.7-1.8c-3.2-1.8-5.5-4.5-7.3-7.8
			c-1.5-2.8-2.3-5.8-2.5-8.9c-0.3-4.7,0.7-9.1,3.7-12.9c1.2-1.5,2.7-2.8,4.3-3.9c2.1-1.4,4.4-2.1,6.8-2.2c2.7-0.1,5.2,0.4,7.5,1.8
			c2.3,1.4,4.2,3.2,5.6,5.5c0.5,0.7,0.9,1.5,1.8,1.6c0.4,0,0.9,0,1.3,0c0.2,0,0.4,0,0.7,0c0.1,0,0.3,0,0.5-0.1
			c0.2-0.1,0.7-0.4,0.8-0.5c0.5-0.6,0.4-1.4-0.1-2.1c-0.5-0.8-1.1-1.5-1.6-2.2c-2.4-3.4-5.7-5.6-9.5-7c-3.3-1.2-6.8-1.4-10.2-0.4
			c-1.7,0.5-3.5,1.1-5,1.9c-2,1.1-3.9,2.4-5.4,4.3c-1,1.3-2.1,2.7-3,4.1c-1.1,1.8-1.8,3.8-2.3,5.9c-0.6,2.5-0.9,5.1-0.7,7.7
			c0,0.5,0.1,1,0.1,1.4c0.4,3.4,1.5,6,1.8,6.7c0,0.1,0,0.1,0.1,0.1c0,0,0,0.1,0,0.1l0,0c0.6,1.2,1.1,2.4,1.7,3.5
			c0.6,1,1.4,1.9,2.2,2.8c1.5,1.8,3.3,3.3,5.3,4.4c2.7,1.5,5.5,2.2,8.6,2.3c2.6,0.1,5.2,0,7.7,0v0c2.8,0,5.7,0,8.5,0
			c0.9,0,1.7-0.8,1.7-1.7c0-0.6,0-1.2,0-1.8C415.8,320.6,415.1,320,413.6,320.4z"/>
		<path class="st0" d="M377.9,310.7c0-3.4-1.5-5.9-1.5-5.9l-0.1-0.1l0,0c0-0.1-0.1-0.2-0.1-0.3c-0.7-1.4-1.6-2.6-2.9-3.5
			c-1.7-1.2-3.7-2-5.7-2.5c-1.6-0.4-3.3-0.8-4.9-1c-3.9-0.3-7.8-0.4-11.7-0.6c-1.5-0.1-2.9-0.7-3.9-1.8c-0.5-0.5-0.9-1.2-1-1.9
			c-0.4-2.4,0.4-4.4,2.3-6c2.3-1.9,4.9-2.9,7.9-3.2c3.5-0.3,6.8,0,10,1.4c1.6,0.7,3.2,1.6,4.3,3.1c0.8,1.1,1.4,2.2,2,3.4
			c0.3,0.6,0.8,1,1.5,1c0.6,0,1.1,0,1.7,0c1.1,0,1.7-0.7,1.6-1.8c0-0.4-0.2-0.7-0.3-1.1c-0.1-0.4-0.3-0.7-0.5-1.1
			c-0.8-1.7-1.7-3.2-3-4.5c-2.5-2.3-5.5-3.4-8.8-4.1c-2.5-0.6-5.1-0.6-7.7-0.5c-2,0.1-4,0.5-6,1.2c-2.4,0.8-4.5,2.1-6.4,3.8
			c-1.1,1-2,2.2-2.5,3.6c-1,3-1.1,6,0.7,8.8c0.7,1.1,1.6,1.9,2.7,2.5c1.8,1,3.8,1.3,5.8,1.4c3.3,0.1,6.5,0.2,9.8,0.3
			c3.1,0.1,6,0.7,8.5,2.6c2.7,2,4,4.7,3.8,7.9c-0.2,3.3-2,5.8-4.8,7.3c-5.1,2.7-10.5,3.1-15.8,0.8c-2.2-0.9-4.1-2.4-5.5-4.4
			c-0.9-1.2-1.5-2.6-2.3-3.9c-0.5-0.8-1-1.1-1.9-1c-0.3,0-0.6,0.1-1,0c-1.4-0.1-2.1,0.9-1.6,2.2c1,3,2.6,5.6,4.9,7.7
			c3.4,3,7.4,4.5,11.9,4.9c3.5,0.3,6.8-0.2,10.1-1.4c1.3-0.4,2.6-1.1,3.8-1.7c1.6-0.9,3-2.2,4.1-3.7c1.6-2,2.4-4.3,2.5-6.8
			C377.9,311.6,377.9,311.1,377.9,310.7z"/>
	</g>
	<path class="st0" d="M492,322.9c-0.1-5.5-0.2-11.1-0.4-16.6c-0.1-3.5-0.1-6.9-0.2-10.4c-0.1-2.2-0.5-4.3-1.4-6.4
		c-1.5-3.7-4.4-6.1-7.9-7.8c-2.3-1.1-4.7-1.5-7.2-1.7c-2.6-0.1-5.1,0-7.6,0.8c-2.5,0.7-4.7,2-6.7,3.6c-0.4,0.3-0.7,0.7-1.1,1
		c-0.6,0.4-1.1,0.1-1.1-0.6c0-0.8,0-1.6,0.1-2.4c0.1-1.2-0.6-2.1-1.8-2c-0.3,0-0.6,0-0.9,0c-1.6,0-2.3,0.7-2.2,2.3
		c0,0.6,0.1,1.2,0.1,1.8c0,0.3,0,0.7,0,1h0l0,2.9c0,0.3,0,0.7,0,1l0.1,3.8c0,0.1,0,0.2,0,0.3c0,0.9,0,1.8,0,2.8v0
		c0,6.9,0,13.9,0,20.8c0,1.1,0,2.3-0.1,3.4l0,0v2.5v0c0,1.3,0.6,1.8,1,1.9c0.2,0.1,0.4,0.1,0.7,0.1c0.4,0,0.9,0,1.3,0
		c1.1,0,1.6-0.4,1.8-1.5c0-0.3,0-0.6,0-1c-0.1-4.6-0.2-9.2-0.3-15.7c0-3,0.1-7.9,0.2-12.7c0-0.6,0.2-1.4,0.5-1.9
		c0.4-0.8,1-1.5,1.6-2.2c1.9-2.3,4.1-4,6.9-5c4.3-1.6,8.7-1.6,12.8,0.6c2.2,1.1,3.9,2.8,5.1,4.9c1.3,2.3,1.7,4.9,1.7,7.5
		c0.1,5.8,0.1,11.7,0.1,17.5c0,2.6-0.1,5.2-0.2,7.7c0,1.1,0.6,1.7,1.7,1.7c0.6,0,1.1,0,1.7,0c0.9-0.1,1.4-0.6,1.4-1.5
		C492,323.4,492,323.1,492,322.9z"/>
	<path class="st0" d="M339.3,244.5c0,0-38.4,2.6-55.6,30.7c0,0-9.3,14.8-14.9,35.7c0,0-2.1-14.8,3.7-29.7c0.8-2.2,1.9-4.4,3.1-6.5
		c0,0,0.4-0.9,1.3-2.4C281.4,264.4,298.8,240.5,339.3,244.5z"/>
	<path class="st0" d="M237.9,349c0,0,59.8-6.7,65.1-66.1C303,282.9,310.4,356.4,237.9,349z"/>
	<path class="st1" d="M244,340.4c0,0,24.9-4.9,42.1-54.4c0,0,9.7-28,41-31.1c0,0-21.7-0.4-34.8,42.7
		C292.3,297.7,282.3,335.9,244,340.4z"/>
	<path class="st2" d="M311.2,270.6c0,0,7.9,19.7-27,12.3c0,0-20.1-5.4-26.5-10.1c0,0,2.8,5.4,25.8,12.3c0,0,2.9,0.9,7,1.7
		c1.9,0.4,4,0.8,6.1,1c1,0.1,6.3,0.6,10,0.6c4.1,0,8.8-0.6,11-3.3C317.7,285.1,322.3,280.3,311.2,270.6z"/>
	<path class="st2" d="M308.9,287.6c0,0,7.9,19.7-27,12.3c0,0-20.1-5.4-26.5-10.1c0,0,2.8,5.4,25.8,12.3c0,0,2.9,0.9,7,1.7
		c1.9,0.4,4,0.8,6.1,1c1,0.1,6.3,0.6,10,0.6c4.1,0,8.8-0.6,11-3.3C315.4,302.1,320,297.3,308.9,287.6z"/>
	<path class="st0" d="M452.2,320.6c-0.7-0.4-1.6-0.3-2.4-0.1c-5.4,1.2-10.9,1.5-16.4,0.6c-2.1-0.4-4.1-1.1-5.8-2.5
		c-1.3-1.1-2.6-2.2-3.5-3.5c-1-1.5-1.9-3.1-2.6-4.7c-1.9-4.8-2.1-9.7-0.8-14.7c0.2-0.6,0.4-1.1,0.6-1.7c0.2-0.7,0.7-1,1.4-1
		c2.7,0,5.4,0,8.1,0c2.1,0,4.1,0,6.2,0v0c4.7,0,9.4,0,14.2,0c0.4,0,0.9-0.2,1.3-0.3c0.9-0.8,0.3-2.3-0.5-3.7
		c-0.3-0.4-0.6-0.9-0.9-1.3c0,0,0-0.1-0.1-0.1c-1.1-1.4-2.3-2.7-3.8-3.8c-2.8-2-5.8-3.4-9.3-3.8c-2.7-0.3-5.3-0.1-7.8,0.7
		c-2.3,0.7-4.4,1.9-6.4,3.3c-2,1.5-3.6,3.2-4.8,5.3c-2,3.3-3.3,6.8-3.7,10.6c-0.3,2.5-0.2,5.1,0.3,7.6c0.4,2.4,1.3,4.6,2.4,6.9
		c1.3,2.8,3.4,4.9,5.6,6.9c1.6,1.5,3.5,2.4,5.6,3.2c0.9,0.4,1.9,0.7,2.9,0.8c2.2,0.2,4.4,0.2,6.5,0.3c4,0.1,8,0.1,11.9,0.2
		c0.9,0,1.5-0.1,2.1-0.7C454.6,322.2,452.6,320.9,452.2,320.6z M435.3,283.8c6.6,0,10.5,5,10.5,5h-20.1
		C429.7,283.3,435.3,283.8,435.3,283.8z"/>
</g>
</svg>
